<?xml version="1.0" encoding="UTF-8"?>
<svg version="1.1" xmlns="http://www.w3.org/2000/svg" width="193" height="193">
<path d="M0 0 C63.69 0 127.38 0 193 0 C193 63.69 193 127.38 193 193 C129.31 193 65.62 193 0 193 C0 129.31 0 65.62 0 0 Z " fill="none" transform="translate(0,0)"/>
<path d="M0 0 C4.78123252 0.45857596 7.32211573 4.14533654 10.55029297 7.4440918 C11.25154297 8.11762695 11.95279297 8.79116211 12.67529297 9.48510742 C13.33271484 10.14575195 13.99013672 10.80639648 14.66748047 11.48706055 C15.26931152 12.08929443 15.87114258 12.69152832 16.49121094 13.31201172 C17.67529297 15.2565918 17.67529297 15.2565918 17.46069336 17.79931641 C16.06805539 22.15645073 13.62744607 25.94990223 11.36669922 29.9050293 C8.78815972 35.01446784 7.51753959 40.00925793 7.05029297 45.6940918 C6.97552734 46.55905273 6.90076172 47.42401367 6.82373047 48.31518555 C6.77474609 48.95584961 6.72576172 49.59651367 6.67529297 50.2565918 C7.78904297 50.3390918 8.90279297 50.4215918 10.05029297 50.5065918 C22.08168485 52.05834375 30.67922848 58.60041038 38.42529297 67.5222168 C39.67529297 69.2565918 39.67529297 69.2565918 39.67529297 71.2565918 C40.33529297 71.2565918 40.99529297 71.2565918 41.67529297 71.2565918 C44.67529297 77.8815918 44.67529297 77.8815918 44.67529297 81.2565918 C45.33529297 81.2565918 45.99529297 81.2565918 46.67529297 81.2565918 C46.67529297 88.8465918 46.67529297 96.4365918 46.67529297 104.2565918 C46.01529297 104.2565918 45.35529297 104.2565918 44.67529297 104.2565918 C44.57216797 105.13573242 44.46904297 106.01487305 44.36279297 106.9206543 C42.43528518 116.27344779 35.17250904 123.77335925 27.67529297 129.2565918 C25.09129305 130.87345163 22.50058646 132.12098839 19.67529297 133.2565918 C19.00111328 133.55436523 18.32693359 133.85213867 17.63232422 134.15893555 C7.95867139 137.98258338 -2.84199679 137.31840416 -12.32470703 133.2565918 C-24.47448638 127.55785628 -32.6071082 117.73889427 -37.32470703 105.2565918 C-44.53781869 80.54252272 -37.13103528 51.32283402 -25.31396484 29.2487793 C-21.03781484 21.71802746 -9.13074856 1.00781524 0 0 Z " fill="#FAFAFA" transform="translate(146.32470703125,28.743408203125)"/>
<path d="M0 0 C2.99266492 1.98082367 5.36990539 4.62763621 7.875 7.1875 C8.57625 7.86103516 9.2775 8.53457031 10 9.22851562 C10.65742187 9.88916016 11.31484375 10.54980469 11.9921875 11.23046875 C12.59401855 11.83270264 13.19584961 12.43493652 13.81591797 13.05541992 C15 15 15 15 14.79907227 17.51708984 C13.8924539 20.33417166 12.58804001 22.8296067 11.16796875 25.41992188 C6.67456717 33.6207767 4.58880774 40.5790762 4 50 C5.56427734 50.19529297 5.56427734 50.19529297 7.16015625 50.39453125 C16.04230346 51.79507328 23.25922048 55.09106136 30 61 C30.60585937 61.48984375 31.21171875 61.9796875 31.8359375 62.484375 C38.90597523 68.7208275 43.49219881 78.61502434 44.23828125 87.99609375 C44.52164878 101.13539849 41.69576076 111.9405456 33 122 C28.25844398 126.94110047 23.27836548 130.31508345 17 133 C15.700625 133.5878125 15.700625 133.5878125 14.375 134.1875 C3.50811573 137.9051183 -7.58758119 136.36214173 -18 132 C-20.98265753 130.28361167 -23.46449972 128.31672924 -26 126 C-26.60328125 125.49855469 -27.2065625 124.99710937 -27.828125 124.48046875 C-36.675559 116.57547881 -41.28845196 104.29061911 -42.18017578 92.64746094 C-43.92604065 59.41971025 -32.31978982 30.35431178 -10.76171875 5.41015625 C-5.20335074 -0.54598574 -5.20335074 -0.54598574 0 0 Z " fill="#FAFAFA" transform="translate(42,29)"/>
<path d="M0 0 C2.99266492 1.98082367 5.36990539 4.62763621 7.875 7.1875 C8.57625 7.86103516 9.2775 8.53457031 10 9.22851562 C10.65742187 9.88916016 11.31484375 10.54980469 11.9921875 11.23046875 C12.59401855 11.83270264 13.19584961 12.43493652 13.81591797 13.05541992 C15 15 15 15 14.79907227 17.51708984 C13.8924539 20.33417166 12.58804001 22.8296067 11.16796875 25.41992188 C6.67456717 33.6207767 4.58880774 40.5790762 4 50 C5.56427734 50.19529297 5.56427734 50.19529297 7.16015625 50.39453125 C16.04230346 51.79507328 23.25922048 55.09106136 30 61 C30.60585937 61.48984375 31.21171875 61.9796875 31.8359375 62.484375 C38.90597523 68.7208275 43.49219881 78.61502434 44.23828125 87.99609375 C44.52164878 101.13539849 41.69576076 111.9405456 33 122 C28.25844398 126.94110047 23.27836548 130.31508345 17 133 C15.700625 133.5878125 15.700625 133.5878125 14.375 134.1875 C3.50811573 137.9051183 -7.58758119 136.36214173 -18 132 C-20.98265753 130.28361167 -23.46449972 128.31672924 -26 126 C-26.60328125 125.49855469 -27.2065625 124.99710937 -27.828125 124.48046875 C-36.675559 116.57547881 -41.28845196 104.29061911 -42.18017578 92.64746094 C-43.92604065 59.41971025 -32.31978982 30.35431178 -10.76171875 5.41015625 C-5.20335074 -0.54598574 -5.20335074 -0.54598574 0 0 Z M-3 7 C-22.49988304 24.53900095 -34.66954739 51.06505199 -36.12304688 77.21362305 C-36.67901046 93.19588106 -35.3524149 107.81706177 -23.9765625 120.203125 C-16.08430564 127.39989562 -6.96824368 130.54680644 3.6796875 130.25 C14.87677304 129.04358001 23.79872933 123.46588406 31 115 C37.54275083 106.38018542 38.8538086 97.63129421 38 87 C36.48006812 77.6593277 31.55740935 69.56270024 24.1875 63.625 C17.3827724 58.9836251 9.99324903 56.73990272 1.93359375 55.39453125 C0 55 0 55 -1 54 C-1.99730708 41.62358265 -0.31621677 30.93385783 7.046875 20.62109375 C8.25341928 18.88240113 8.25341928 18.88240113 8 16 C6.34131627 14.15952858 6.34131627 14.15952858 4.1875 12.4375 C3.47980469 11.83808594 2.77210937 11.23867188 2.04296875 10.62109375 C-0.10906824 8.86758367 -0.10906824 8.86758367 -3 7 Z " fill="#0E0E0E" transform="translate(42,29)"/>
<path d="M0 0 C4.78123252 0.45857596 7.32211573 4.14533654 10.55029297 7.4440918 C11.25154297 8.11762695 11.95279297 8.79116211 12.67529297 9.48510742 C13.33271484 10.14575195 13.99013672 10.80639648 14.66748047 11.48706055 C15.26931152 12.08929443 15.87114258 12.69152832 16.49121094 13.31201172 C17.67529297 15.2565918 17.67529297 15.2565918 17.46069336 17.79931641 C16.06805539 22.15645073 13.62744607 25.94990223 11.36669922 29.9050293 C8.78815972 35.01446784 7.51753959 40.00925793 7.05029297 45.6940918 C6.97552734 46.55905273 6.90076172 47.42401367 6.82373047 48.31518555 C6.77474609 48.95584961 6.72576172 49.59651367 6.67529297 50.2565918 C7.78904297 50.3390918 8.90279297 50.4215918 10.05029297 50.5065918 C22.08168485 52.05834375 30.67922848 58.60041038 38.42529297 67.5222168 C39.67529297 69.2565918 39.67529297 69.2565918 39.67529297 71.2565918 C40.33529297 71.2565918 40.99529297 71.2565918 41.67529297 71.2565918 C44.67529297 77.8815918 44.67529297 77.8815918 44.67529297 81.2565918 C45.33529297 81.2565918 45.99529297 81.2565918 46.67529297 81.2565918 C46.67529297 88.8465918 46.67529297 96.4365918 46.67529297 104.2565918 C46.01529297 104.2565918 45.35529297 104.2565918 44.67529297 104.2565918 C44.57216797 105.13573242 44.46904297 106.01487305 44.36279297 106.9206543 C42.43528518 116.27344779 35.17250904 123.77335925 27.67529297 129.2565918 C25.09129305 130.87345163 22.50058646 132.12098839 19.67529297 133.2565918 C19.00111328 133.55436523 18.32693359 133.85213867 17.63232422 134.15893555 C7.95867139 137.98258338 -2.84199679 137.31840416 -12.32470703 133.2565918 C-24.47448638 127.55785628 -32.6071082 117.73889427 -37.32470703 105.2565918 C-44.53781869 80.54252272 -37.13103528 51.32283402 -25.31396484 29.2487793 C-21.03781484 21.71802746 -9.13074856 1.00781524 0 0 Z M-4.01220703 10.6315918 C-24.95012631 32.24735738 -33.91361023 61.64400279 -33.53564453 91.16674805 C-33.23832832 101.2259464 -30.40364669 108.3119929 -24.32470703 116.2565918 C-23.56158203 117.3290918 -22.79845703 118.4015918 -22.01220703 119.5065918 C-15.436594 126.23512606 -5.61894868 130.27416447 3.80029297 130.5690918 C14.03436469 129.74376343 23.8672976 126.23167209 30.67529297 118.2565918 C31.52091797 117.3490918 32.36654297 116.4415918 33.23779297 115.5065918 C40.04557486 107.21698987 41.35585948 97.6320208 40.67529297 87.2565918 C39.10815461 77.4799488 33.82664233 69.55793859 26.23779297 63.3190918 C19.52487858 58.49666089 12.98939181 56.95508873 4.89794922 55.6862793 C2.67529297 55.2565918 2.67529297 55.2565918 1.67529297 54.2565918 C0.81259804 46.75114592 1.69376043 39.96215923 3.92529297 32.8190918 C4.12977051 32.15772217 4.33424805 31.49635254 4.54492188 30.81494141 C6.00263871 26.46107288 8.07772026 23.01478209 10.67529297 19.2565918 C10.99580794 17.11918717 10.99580794 17.11918717 9.67529297 15.2565918 C7.71343881 13.5451871 5.71226914 11.87785854 3.67529297 10.2565918 C3.01529297 9.2665918 2.35529297 8.2765918 1.67529297 7.2565918 C-1.22199676 7.2565918 -1.9810036 8.6123601 -4.01220703 10.6315918 Z " fill="#0E0E0E" transform="translate(146.32470703125,28.743408203125)"/>
<path d="M0 0 C0.99 0.33 1.98 0.66 3 1 C2.67675501 3.99001613 2.45193862 5.56420205 0.25 7.6875 C-2.10357033 9.06041602 -4.43941653 10.07534486 -7 11 C-7 7.22089522 -6.00296038 6.53893899 -3.5 3.8125 C-2.8503125 3.09707031 -2.200625 2.38164063 -1.53125 1.64453125 C-1.0259375 1.10183594 -0.520625 0.55914062 0 0 Z " fill="#070707" transform="translate(140,35)"/>
<path d="M0 0 C2.66735273 2.48952921 4.55746343 4.63408134 6 8 C5.01 8 4.02 8 3 8 C1.66018514 8.3062434 0.32488113 8.63451555 -1 9 C-1.99 7.35 -2.98 5.7 -4 4 C-2.68 3.67 -1.36 3.34 0 3 C0 2.01 0 1.02 0 0 Z " fill="#151515" transform="translate(12,141)"/>
<path d="M0 0 C2.9375 1.1875 2.9375 1.1875 3.9375 3.1875 C3.298125 3.31125 2.65875 3.435 2 3.5625 C0.9790625 3.871875 0.9790625 3.871875 -0.0625 4.1875 C-0.3925 4.8475 -0.7225 5.5075 -1.0625 6.1875 C-2.43812854 4.89784824 -3.77016393 3.56060707 -5.0625 2.1875 C-5.0625 1.5275 -5.0625 0.8675 -5.0625 0.1875 C-3.0625 -0.8125 -3.0625 -0.8125 0 0 Z " fill="#040404" transform="translate(17.0625,148.8125)"/>
<path d="M0 0 C0.99 0.66 1.98 1.32 3 2 C3 2.66 3 3.32 3 4 C3.66 4.33 4.32 4.66 5 5 C3.68 5.99 2.36 6.98 1 8 C0.67 6.35 0.34 4.7 0 3 C-0.99 3 -1.98 3 -3 3 C-2.01 2.01 -1.02 1.02 0 0 Z " fill="#1C1C1C" transform="translate(179,144)"/>
<path d="M0 0 C0.99 0 1.98 0 3 0 C2.3125 2.875 2.3125 2.875 1 6 C-1.625 7.375 -1.625 7.375 -4 8 C-2.87548273 5.0280615 -1.77706209 2.66559313 0 0 Z " fill="#DDDDDD" transform="translate(188,141)"/>
<path d="M0 0 C0.66 0.99 1.32 1.98 2 3 C0.35 4.65 -1.3 6.3 -3 8 C-3.33 7.01 -3.66 6.02 -4 5 C-3.34 4.01 -2.68 3.02 -2 2 C-1.34 2 -0.68 2 0 2 C0 1.34 0 0.68 0 0 Z " fill="#EFEFEF" transform="translate(28,34)"/>
<path d="M0 0 C2.625 1.375 2.625 1.375 5 3 C5 3.33 5 3.66 5 4 C2.625 4.1875 2.625 4.1875 0 4 C-0.66 3.01 -1.32 2.02 -2 1 C-1.34 0.67 -0.68 0.34 0 0 Z M5 2 C7 3 7 3 7 3 Z " fill="#030303" transform="translate(153,38)"/>
</svg>
